<svg xmlns="http://www.w3.org/2000/svg" fill="#E95420" viewBox="0 0 24 24"  xmlns:v="https://vecta.io/nano"><path d="M12 0a12.01 12.01 0 0 1 12 12 12.01 12.01 0 0 1-12 12A12.01 12.01 0 0 1 0 12 12.01 12.01 0 0 1 12 0zm3.279 17.68a1.6 1.6 0 1 0 1.602 2.773 1.6 1.6 0 1 0-1.602-2.773zm-3.279-1c-.705 0-1.373-.157-1.971-.435L8.916 18.24c.93.459 1.978.721 3.084.721a6.91 6.91 0 0 0 1.86-.256 2.24 2.24 0 0 1 1.095-1.587c.609-.351 1.313-.386 1.92-.156 1.186-1.163 1.957-2.749 2.07-4.515l-2.285-.033A4.68 4.68 0 0 1 12 16.68zM7.32 12a4.68 4.68 0 0 1 1.99-3.83L8.14 6.209a6.97 6.97 0 0 0-2.881 4.035 2.22 2.22 0 0 1 .83 1.74c0 .704-.324 1.319-.83 1.739a6.97 6.97 0 0 0 2.881 4.034l1.17-1.965C8.107 14.97 7.32 13.574 7.32 12zm-3.48-1.602a1.6 1.6 0 1 0 0 3.204 1.6 1.6 0 1 0 0-3.204zM12 7.32a4.68 4.68 0 0 1 4.66 4.265l2.285-.034a6.95 6.95 0 0 0-2.07-4.516c-.609.232-1.313.194-1.92-.154s-.99-.945-1.095-1.591c-.594-.16-1.214-.25-1.86-.25-1.11 0-2.155.26-3.084.72l1.113 1.995c.6-.279 1.268-.435 1.971-.435zm3.279-1.001c.765.442 1.746.181 2.189-.585s.181-1.746-.588-2.19-1.746-.179-2.189.589a1.6 1.6 0 0 0 .588 2.186z"/></svg>