<svg xmlns="http://www.w3.org/2000/svg" fill="#E10098" viewBox="0 0 24 24"  xmlns:v="https://vecta.io/nano"><path d="M14.051 2.751l4.935 2.85c.816-.859 2.173-.893 3.032-.077a2.15 2.15 0 0 1 .377.477c.589 1.028.232 2.339-.796 2.928a2.13 2.13 0 0 1-.558.223v5.699a2.13 2.13 0 0 1 1.58 2.569c-.048.204-.127.4-.232.581-.592 1.023-1.901 1.374-2.927.782a2.13 2.13 0 0 1-.526-.429l-4.905 2.832a2.14 2.14 0 0 1-1.361 2.706A2.15 2.15 0 0 1 12 24a2.14 2.14 0 0 1-2.052-2.745l-4.936-2.847a2.14 2.14 0 1 1-3.096-2.956c.283-.297.646-.506 1.044-.603l.001-5.699A2.14 2.14 0 0 1 1.38 6.566c.047-.198.123-.389.224-.566.592-1.024 1.902-1.374 2.927-.782a2.08 2.08 0 0 1 .48.377l4.938-2.85A2.14 2.14 0 0 1 11.39.088C11.587.029 11.794 0 12 0c1.181-.001 2.139.954 2.14 2.134a2.14 2.14 0 0 1-.089.617zm-.515.877l-.058.058 6.461 11.19c.026-.009.056-.016.082-.023V9.146c-1.145-.283-1.842-1.442-1.558-2.588l.019-.072-4.946-2.858zm-3.015.059l-.06-.06-4.946 2.852c.327 1.135-.327 2.318-1.461 2.645l-.076.021v5.708l.084.023 6.461-11.19zm2.076.507c-.39.112-.803.112-1.192 0l-6.46 11.189a2.17 2.17 0 0 1 .6 1.041h12.911a2.15 2.15 0 0 1 .603-1.044L12.597 4.194zm.986 16.227l4.913-2.838-.038-.142H5.542l-.021.083 4.939 2.852c.388-.404.934-.653 1.54-.653a2.14 2.14 0 0 1 1.583.698z"/></svg>