<svg xmlns="http://www.w3.org/2000/svg" baseProfile="tiny" height="1451.34" width="1451.34"  xmlns:v="https://vecta.io/nano"><path d="M1381.691 1058.94c-76.136 39.689-470.554 201.855-554.521 245.624-83.974 43.803-130.616 43.376-196.949 11.664s-486.059-201.251-561.667-237.402c-37.793-18.051-57.659-33.302-57.659-47.7V886.913s546.428-118.956 634.649-150.607 118.815-32.789 193.887-5.286c75.082 27.503 523.964 108.488 598.158 135.662l-.033 142.167c.01 14.266-17.108 29.911-55.865 50.091z" fill="#a42122"/><path d="M1381.691 914.694c-76.136 39.673-470.554 201.856-554.521 245.624-83.974 43.786-130.616 43.359-196.949 11.646-66.341-31.694-486.058-201.266-561.666-237.385-75.609-36.135-77.193-61.017-2.92-90.092l579.918-224.52c88.209-31.634 118.816-32.794 193.887-5.283 75.079 27.499 467.139 183.56 541.335 210.735 74.204 27.192 77.053 49.585.916 89.275z" fill="#d82f27"/><path d="M1381.691 823.782c-76.136 39.689-470.554 201.856-554.521 245.642-83.974 43.769-130.616 43.343-196.949 11.629-66.342-31.695-486.059-201.25-561.667-237.385-37.793-18.067-57.659-33.285-57.659-47.684V651.746s546.428-118.95 634.649-150.602c88.218-31.643 118.815-32.794 193.887-5.291 75.082 27.499 523.964 108.476 598.158 135.655l-.033 142.183c.01 14.25-17.108 29.893-55.865 50.091z" fill="#a42122"/><path d="M1381.691 679.523c-76.136 39.685-470.554 201.852-554.521 245.637-83.974 43.785-130.616 43.343-196.949 11.646-66.341-31.695-486.058-201.271-561.666-237.397s-77.193-61.005-2.92-90.102L645.553 384.81c88.209-31.643 118.816-32.794 193.887-5.291 75.079 27.498 467.139 183.543 541.335 210.727 74.204 27.191 77.053 49.591.916 89.277z" fill="#d82f27"/><path d="M1381.691 579.889c-76.136 39.685-470.554 201.861-554.521 245.645-83.974 43.785-130.616 43.343-196.949 11.647C563.88 805.484 144.163 635.91 68.555 599.783c-37.793-18.067-57.659-33.298-57.659-47.687v-144.23s546.428-118.951 634.649-150.594c88.218-31.652 118.815-32.794 193.887-5.292 75.082 27.499 523.964 108.476 598.158 135.655l-.033 142.174c.009 14.243-17.109 29.882-55.866 50.08z" fill="#a42122"/><path d="M1381.691 435.634c-76.136 39.685-470.554 201.86-554.521 245.642-83.974 43.773-130.616 43.342-196.949 11.643-66.333-31.706-486.059-201.259-561.667-237.39s-77.193-61.014-2.92-90.102l579.919-224.498c88.209-31.652 118.816-32.794 193.887-5.287 75.079 27.503 467.139 183.548 541.335 210.731 74.204 27.171 77.053 49.583.916 89.261z" fill="#d82f27"/><g fill="#fff"><path d="M911.195 296.749l-123.624 12.829-27.681 66.59-44.7-74.305-142.747-12.83 106.513-38.413-31.953-58.961 99.717 38.998 94.023-30.78-25.415 60.973zM752.509 619.808l-230.723-95.695 330.612-50.738z"/><ellipse cx="432.636" cy="402.254" rx="176.704" ry="68.495"/></g><path fill="#791514" d="M1057.292 314.947l195.665 77.327-195.501 77.243z"/><path fill="#ad2524" d="M840.825 400.575l216.467-85.628.164 154.57-21.221 8.301z"/></svg>